<svg id="svg" xmlns="http://www.w3.org/2000/svg" viewBox="10 5 85 85"><defs/><style>
      .grid-line {
        vector-effect: non-scaling-stroke;
      }

      text {
        font-family: sans-serif;
      }
    </style><g id="main-group"><path id="element-0" fill="rgb(127, 0, 127)" fill-opacity="1" stroke-opacity="1" transform="" d="M 17.928932188134524,82.92893218813452 C 11.211417766862326,76.21141776686233 11.211417766862326,75.50431098567577 17.928932188134535,68.78679656440357 C 24.646446609406745,62.06928214313139 24.646446609406745,61.362175361944836 17.92893218813454,54.64466094067264 C 11.211417766862333,47.927146519400445 11.211417766862334,47.22003973821389 17.928932188134546,40.5025253169417 C 24.64644660940676,33.785010895669515 24.64644660940676,33.07790411448296 17.928932188134553,26.360389693210763 C 11.21141776686235,19.642875271938564 11.21141776686235,18.93576849075201 17.928932188134553,12.218254069479812 C 24.646446609406755,5.500739648207613 25.3535533905933,5.500739648207613 32.07106781186549,12.218254069479826 C 38.788582233137674,18.93576849075204 39.49568901432423,18.93576849075204 46.21320343559643,12.21825406947984 C 52.930717856868625,5.500739648207642 53.63782463805518,5.500739648207642 60.35533905932736,12.218254069479855 C 67.07285348059955,18.935768490752068 67.7799602617861,18.935768490752068 74.49747468305827,12.218254069479855 C 81.21498910433046,5.500739648207627 81.92209588551701,5.500739648207627 88.63961030678922,12.218254069479826 C 95.35712472806142,18.93576849075201 95.35712472806142,19.642875271938564 88.63961030678922,26.36038969321075 C 81.92209588551701,33.07790411448295 81.92209588551701,33.7850108956695 88.63961030678922,40.50252531694169 C 95.35712472806142,47.220039738213885 95.35712472806142,47.92714651940043 88.63961030678917,54.64466094067258 C 81.92209588551691,61.36217536194473 81.92209588551691,62.069282143131275 88.63961030678911,68.78679656440346 C 95.35712472806132,75.50431098567566 95.35712472806132,76.21141776686221 88.63961030678911,82.92893218813441 C 81.92209588551691,89.6464466094066 81.21498910433036,89.6464466094066 74.49747468305819,82.92893218813438 C 67.779960261786,76.21141776686216 67.07285348059945,76.21141776686216 60.355339059327235,82.92893218813434 C 53.63782463805503,89.64644660940654 52.930717856868476,89.64644660940654 46.213203435596256,82.92893218813435 C 39.49568901432403,76.21141776686218 38.788582233137475,76.21141776686218 32.07106781186526,82.92893218813437 C 25.353553390593262,89.64644660940672 24.646446609406727,89.64644660940672 17.928932188134524,82.92893218813452 z" class="cursor-selectable tag-0" visibility="visible"/></g></svg>