<svg id="svg" xmlns="http://www.w3.org/2000/svg" viewBox="0 0 76 14"><defs/><style>
      .grid-line {
        vector-effect: non-scaling-stroke;
      }

      text {
        font-family: sans-serif;
      }
    </style><g id="main-group"><polygon id="element-0" fill="none" fill-opacity="0" stroke="rgb(255, 0, 0)" stroke-opacity="1" stroke-width="0.2" transform="" points="12,12 12,10 13,10 13,8 12,8 12.000000000000005,6 13.000000000000005,6.000000000000001 13.000000000000004,4 12.000000000000004,4 12.000000000000009,2 12.000000000000012,1 10.000000000000012,0.9999999999999911 10.000000000000012,1.9999999999999911 8.000000000000012,1.9999999999999947 8.000000000000012,0.9999999999999947 6.000000000000012,0.9999999999999982 6.000000000000009,1.9999999999999982 4.000000000000009,2.0000000000000018 4.000000000000009,1.0000000000000018 2.000000000000009,0.9999999999999911 2.000000000000005,1.9999999999999911 1.0000000000000049,1.999999999999993 0.9999999999999966,3.999999999999993 1.9999999999999964,3.9999999999999947 1.9999999999999876,5.999999999999995 0.9999999999999876,5.999999999999988 0.9999999999999925,7.999999999999988 1.9999999999999925,7.99999999999999 1.9999999999999827,9.99999999999999 0.9999999999999827,9.999999999999982 0.9999999999999866,11.999999999999982 1.9999999999999867,11.999999999999986 3.9999999999999867,11.99999999999998 3.999999999999988,12.99999999999998 5.999999999999988,12.999999999999988 5.999999999999982,11.999999999999988 7.999999999999982,12.00000000000001 7.999999999999983,13.00000000000001 9.999999999999982,13.000000000000048 9.999999999999993,12.000000000000048" class="cursor-selectable tag-0" visibility="visible"/><text id="element-1" fill="rgb(0, 0, 0)" fill-opacity="1" stroke-opacity="1" font-size="6" x="7" y="7" text-anchor="middle" dominant-baseline="central" transform="" class="cursor-selectable tag-1" visibility="visible">1</text><polygon id="element-2" fill="none" fill-opacity="0" stroke="rgb(255, 0, 0)" stroke-opacity="1" stroke-width="0.2" transform="" points="24.5,12 24.5,10 25.5,10 25.5,8 24.5,8 24.500000000000004,6 25.500000000000004,6.000000000000001 25.5,4 24.5,4 24.500000000000007,2 24.50000000000001,1 22.50000000000001,0.9999999999999911 22.50000000000001,1.9999999999999911 20.50000000000001,1.9999999999999947 20.50000000000001,0.9999999999999947 18.50000000000001,0.9999999999999982 18.500000000000007,1.9999999999999982 16.500000000000007,2.0000000000000018 16.500000000000007,1.0000000000000018 14.500000000000007,0.9999999999999911 14.500000000000004,1.9999999999999911 13.500000000000004,1.999999999999993 13.499999999999995,3.999999999999993 14.499999999999995,3.9999999999999947 14.499999999999986,5.999999999999995 13.499999999999986,5.999999999999988 13.499999999999991,7.999999999999988 14.499999999999991,7.99999999999999 14.49999999999998,9.99999999999999 13.49999999999998,9.999999999999982 13.499999999999984,11.999999999999982 14.499999999999984,11.999999999999986 16.499999999999986,11.99999999999998 16.499999999999986,12.99999999999998 18.499999999999986,12.999999999999988 18.499999999999982,11.999999999999988 20.499999999999982,12.00000000000001 20.499999999999982,13.00000000000001 22.499999999999982,13.000000000000048 22.499999999999993,12.000000000000048" class="cursor-selectable tag-2" visibility="visible"/><text id="element-3" fill="rgb(0, 0, 0)" fill-opacity="1" stroke-opacity="1" font-size="6" x="19.5" y="7" text-anchor="middle" dominant-baseline="central" transform="" class="cursor-selectable tag-3" visibility="visible">2</text><polygon id="element-4" fill="none" fill-opacity="0" stroke="rgb(255, 0, 0)" stroke-opacity="1" stroke-width="0.2" transform="" points="37,12 37,10 38,10 38,8 37,8 37.00000000000001,6 38.00000000000001,6.000000000000001 38.00000000000001,4 37.00000000000001,4 37.000000000000014,2 37.000000000000014,1 35.000000000000014,0.9999999999999911 35.000000000000014,1.9999999999999911 33.000000000000014,1.9999999999999947 33.000000000000014,0.9999999999999947 31.000000000000014,0.9999999999999982 31.00000000000001,1.9999999999999982 29.00000000000001,2.0000000000000018 29.00000000000001,1.0000000000000018 27.00000000000001,0.9999999999999911 27.000000000000007,1.9999999999999911 26.000000000000007,1.999999999999993 26,3.999999999999993 27,3.9999999999999947 26.999999999999993,5.999999999999995 25.999999999999993,5.999999999999988 25.999999999999996,7.999999999999988 26.999999999999996,7.99999999999999 26.999999999999986,9.99999999999999 25.999999999999986,9.999999999999982 25.99999999999999,11.999999999999982 26.99999999999999,11.999999999999986 28.99999999999999,11.99999999999998 28.99999999999999,12.99999999999998 30.99999999999999,12.999999999999988 30.999999999999986,11.999999999999988 32.999999999999986,12.00000000000001 32.999999999999986,13.00000000000001 34.999999999999986,13.000000000000048 34.99999999999999,12.000000000000048" class="cursor-selectable tag-4" visibility="visible"/><text id="element-5" fill="rgb(0, 0, 0)" fill-opacity="1" stroke-opacity="1" font-size="6" x="32" y="7" text-anchor="middle" dominant-baseline="central" transform="" class="cursor-selectable tag-5" visibility="visible">3</text><polygon id="element-6" fill="none" fill-opacity="0" stroke="rgb(255, 0, 0)" stroke-opacity="1" stroke-width="0.2" transform="" points="49.5,12 49.5,10 50.5,10 50.5,8 49.5,8 49.50000000000001,6 50.50000000000001,6.000000000000001 50.50000000000001,4 49.50000000000001,4 49.500000000000014,2 49.500000000000014,1 47.500000000000014,0.9999999999999911 47.500000000000014,1.9999999999999911 45.500000000000014,1.9999999999999947 45.500000000000014,0.9999999999999947 43.500000000000014,0.9999999999999982 43.500000000000014,1.9999999999999982 41.500000000000014,2.0000000000000018 41.500000000000014,1.0000000000000018 39.500000000000014,0.9999999999999911 39.50000000000001,1.9999999999999911 38.50000000000001,1.999999999999993 38.5,3.999999999999993 39.5,3.9999999999999947 39.49999999999999,5.999999999999995 38.49999999999999,5.999999999999988 38.5,7.999999999999988 39.5,7.99999999999999 39.49999999999999,9.99999999999999 38.49999999999999,9.999999999999982 38.5,11.999999999999982 39.5,11.999999999999986 41.5,11.99999999999998 41.5,12.99999999999998 43.5,12.999999999999988 43.49999999999999,11.999999999999988 45.49999999999999,12.00000000000001 45.49999999999999,13.00000000000001 47.49999999999999,13.000000000000048 47.5,12.000000000000048" class="cursor-selectable tag-6" visibility="visible"/><text id="element-7" fill="rgb(0, 0, 0)" fill-opacity="1" stroke-opacity="1" font-size="6" x="44.5" y="7" text-anchor="middle" dominant-baseline="central" transform="" class="cursor-selectable tag-7" visibility="visible">4</text><polygon id="element-8" fill="none" fill-opacity="0" stroke="rgb(255, 0, 0)" stroke-opacity="1" stroke-width="0.2" transform="" points="62,12 62,10 63,10 63,8 62,8 62.00000000000001,6 63.00000000000001,6.000000000000001 63.00000000000001,4 62.00000000000001,4 62.000000000000014,2 62.000000000000014,1 60.000000000000014,0.9999999999999911 60.000000000000014,1.9999999999999911 58.000000000000014,1.9999999999999947 58.000000000000014,0.9999999999999947 56.000000000000014,0.9999999999999982 56.000000000000014,1.9999999999999982 54.000000000000014,2.0000000000000018 54.000000000000014,1.0000000000000018 52.000000000000014,0.9999999999999911 52.00000000000001,1.9999999999999911 51.00000000000001,1.999999999999993 51,3.999999999999993 52,3.9999999999999947 51.99999999999999,5.999999999999995 50.99999999999999,5.999999999999988 51,7.999999999999988 52,7.99999999999999 51.99999999999999,9.99999999999999 50.99999999999999,9.999999999999982 51,11.999999999999982 52,11.999999999999986 54,11.99999999999998 54,12.99999999999998 56,12.999999999999988 55.99999999999999,11.999999999999988 57.99999999999999,12.00000000000001 57.99999999999999,13.00000000000001 59.99999999999999,13.000000000000048 60,12.000000000000048" class="cursor-selectable tag-8" visibility="visible"/><text id="element-9" fill="rgb(0, 0, 0)" fill-opacity="1" stroke-opacity="1" font-size="6" x="57" y="7" text-anchor="middle" dominant-baseline="central" transform="" class="cursor-selectable tag-9" visibility="visible">5</text><polygon id="element-10" fill="none" fill-opacity="0" stroke="rgb(255, 0, 0)" stroke-opacity="1" stroke-width="0.2" transform="" points="74.5,12 74.5,10 75.5,10 75.5,8 74.5,8 74.5,6 75.5,6.000000000000001 75.5,4 74.5,4 74.5,2 74.5,1 72.5,0.9999999999999911 72.5,1.9999999999999911 70.5,1.9999999999999947 70.5,0.9999999999999947 68.5,0.9999999999999982 68.5,1.9999999999999982 66.5,2.0000000000000018 66.5,1.0000000000000018 64.5,0.9999999999999911 64.5,1.9999999999999911 63.5,1.999999999999993 63.49999999999999,3.999999999999993 64.5,3.9999999999999947 64.49999999999999,5.999999999999995 63.499999999999986,5.999999999999988 63.49999999999999,7.999999999999988 64.5,7.99999999999999 64.49999999999999,9.99999999999999 63.499999999999986,9.999999999999982 63.49999999999999,11.999999999999982 64.5,11.999999999999986 66.5,11.99999999999998 66.5,12.99999999999998 68.5,12.999999999999988 68.5,11.999999999999988 70.5,12.00000000000001 70.5,13.00000000000001 72.5,13.000000000000048 72.50000000000001,12.000000000000048" class="cursor-selectable tag-10" visibility="visible"/><text id="element-11" fill="rgb(0, 0, 0)" fill-opacity="1" stroke-opacity="1" font-size="6" x="69.5" y="7" text-anchor="middle" dominant-baseline="central" transform="" class="cursor-selectable tag-11" visibility="visible">6</text></g></svg>