<svg id="svg" xmlns="http://www.w3.org/2000/svg" viewBox="-1 -1 100 82"><defs/><style>
      .grid-line {
        vector-effect: non-scaling-stroke;
      }

      text {
        font-family: sans-serif;
      }
    </style><g id="main-group"><rect id="element-0" fill="none" fill-opacity="0" stroke="rgb(255, 0, 0)" stroke-opacity="1" stroke-width="0.1" width="80" height="80" x="0" y="0" transform="" class="cursor-selectable tag-0" visibility="visible"/><rect id="element-1" fill="rgb(0, 0, 0)" fill-opacity="1" stroke-opacity="1" width="14" height="14" x="3" y="63" transform="translate(0 0)" class="cursor-selectable tag-1" visibility="visible"/><rect id="element-2" fill="rgb(0, 0, 0)" fill-opacity="1" stroke-opacity="1" width="14" height="14" x="3" y="48" transform="translate(0 0)" class="cursor-selectable tag-2" visibility="visible"/><rect id="element-3" fill="rgb(0, 0, 0)" fill-opacity="1" stroke-opacity="1" width="14" height="14" x="3" y="33" transform="translate(0 0)" class="cursor-selectable tag-3" visibility="visible"/><rect id="element-4" fill="rgb(0, 0, 0)" fill-opacity="1" stroke-opacity="1" width="14" height="14" x="3" y="18" transform="translate(0 0)" class="cursor-selectable tag-4" visibility="visible"/><rect id="element-5" fill="rgb(0, 0, 0)" fill-opacity="1" stroke-opacity="1" width="14" height="14" x="3" y="3" transform="translate(0 0)" class="cursor-selectable tag-5" visibility="visible"/><rect id="element-6" fill="rgb(0, 0, 0)" fill-opacity="1" stroke-opacity="1" width="14" height="14" x="3" y="63" transform="translate(15 0)" class="cursor-selectable tag-6" visibility="visible"/><rect id="element-7" fill="rgb(0, 0, 0)" fill-opacity="1" stroke-opacity="1" width="14" height="14" x="3" y="48" transform="translate(15 0)" class="cursor-selectable tag-7" visibility="visible"/><rect id="element-8" fill="rgb(0, 0, 0)" fill-opacity="1" stroke-opacity="1" width="14" height="14" x="3" y="33" transform="translate(15 0)" class="cursor-selectable tag-8" visibility="visible"/><rect id="element-9" fill="rgb(0, 0, 0)" fill-opacity="1" stroke-opacity="1" width="14" height="14" x="3" y="18" transform="translate(15 0)" class="cursor-selectable tag-9" visibility="visible"/><rect id="element-10" fill="rgb(0, 0, 0)" fill-opacity="1" stroke-opacity="1" width="14" height="14" x="3" y="3" transform="translate(15 0)" class="cursor-selectable tag-10" visibility="visible"/><rect id="element-11" fill="rgb(0, 0, 0)" fill-opacity="1" stroke-opacity="1" width="14" height="14" x="3" y="63" transform="translate(30 0)" class="cursor-selectable tag-11" visibility="visible"/><rect id="element-12" fill="rgb(0, 0, 0)" fill-opacity="1" stroke-opacity="1" width="14" height="14" x="3" y="48" transform="translate(30 0)" class="cursor-selectable tag-12" visibility="visible"/><rect id="element-13" fill="rgb(0, 0, 0)" fill-opacity="1" stroke-opacity="1" width="14" height="14" x="3" y="33" transform="translate(30 0)" class="cursor-selectable tag-13" visibility="visible"/><rect id="element-14" fill="rgb(0, 0, 0)" fill-opacity="1" stroke-opacity="1" width="14" height="14" x="3" y="18" transform="translate(30 0)" class="cursor-selectable tag-14" visibility="visible"/><rect id="element-15" fill="rgb(0, 0, 0)" fill-opacity="1" stroke-opacity="1" width="14" height="14" x="3" y="3" transform="translate(30 0)" class="cursor-selectable tag-15" visibility="visible"/><rect id="element-16" fill="rgb(0, 0, 0)" fill-opacity="1" stroke-opacity="1" width="14" height="14" x="3" y="63" transform="translate(45 0)" class="cursor-selectable tag-16" visibility="visible"/><rect id="element-17" fill="rgb(0, 0, 0)" fill-opacity="1" stroke-opacity="1" width="14" height="14" x="3" y="48" transform="translate(45 0)" class="cursor-selectable tag-17" visibility="visible"/><rect id="element-18" fill="rgb(0, 0, 0)" fill-opacity="1" stroke-opacity="1" width="14" height="14" x="3" y="33" transform="translate(45 0)" class="cursor-selectable tag-18" visibility="visible"/><rect id="element-19" fill="rgb(0, 0, 0)" fill-opacity="1" stroke-opacity="1" width="14" height="14" x="3" y="18" transform="translate(45 0)" class="cursor-selectable tag-19" visibility="visible"/><rect id="element-20" fill="rgb(0, 0, 0)" fill-opacity="1" stroke-opacity="1" width="14" height="14" x="3" y="3" transform="translate(45 0)" class="cursor-selectable tag-20" visibility="visible"/><rect id="element-21" fill="rgb(0, 0, 0)" fill-opacity="1" stroke-opacity="1" width="14" height="14" x="3" y="63" transform="translate(60 0)" class="cursor-selectable tag-21" visibility="visible"/><rect id="element-22" fill="rgb(0, 0, 0)" fill-opacity="1" stroke-opacity="1" width="14" height="14" x="3" y="48" transform="translate(60 0)" class="cursor-selectable tag-22" visibility="visible"/><rect id="element-23" fill="rgb(0, 0, 0)" fill-opacity="1" stroke-opacity="1" width="14" height="14" x="3" y="33" transform="translate(60 0)" class="cursor-selectable tag-23" visibility="visible"/><rect id="element-24" fill="rgb(0, 0, 0)" fill-opacity="1" stroke-opacity="1" width="14" height="14" x="3" y="18" transform="translate(60 0)" class="cursor-selectable tag-24" visibility="visible"/><rect id="element-25" fill="rgb(0, 0, 0)" fill-opacity="1" stroke-opacity="1" width="14" height="14" x="3" y="3" transform="translate(60 0)" class="cursor-selectable tag-25" visibility="visible"/><circle id="element-26" fill="none" fill-opacity="0" stroke="rgb(255, 0, 0)" stroke-opacity="1" stroke-width="0.1" r="5" cx="90" cy="70" transform="" class="cursor-selectable tag-26" visibility="visible"/><circle id="element-27" fill="none" fill-opacity="0" stroke="rgb(255, 0, 0)" stroke-opacity="1" stroke-width="0.1" r="7" cx="90" cy="70" transform="" class="cursor-selectable tag-27" visibility="visible"/><rect id="element-28" fill="none" fill-opacity="0" stroke="rgb(255, 0, 0)" stroke-opacity="1" stroke-width="0.1" width="13.5" height="13.5" x="83" y="46.5" transform="" class="cursor-selectable tag-28" visibility="visible"/><rect id="element-29" fill="none" fill-opacity="0" stroke="rgb(255, 0, 0)" stroke-opacity="1" stroke-width="0.1" width="13.5" height="13.5" x="83" y="26.5" transform="" class="cursor-selectable tag-29" visibility="visible"/><rect id="element-30" fill="none" fill-opacity="0" stroke="rgb(255, 0, 0)" stroke-opacity="1" stroke-width="0.1" width="13.5" height="13.5" x="83" y="6.5" transform="" class="cursor-selectable tag-30" visibility="visible"/></g></svg>