<svg id="svg" xmlns="http://www.w3.org/2000/svg" viewBox="0 0 100 100"><defs/><style>
      .grid-line {
        vector-effect: non-scaling-stroke;
      }

      text {
        font-family: sans-serif;
      }
    </style><g id="main-group"><circle id="element-0" fill="rgb(208, 58, 43)" fill-opacity="1" stroke-opacity="1" r="50" cx="50" cy="50" transform="" class="cursor-selectable tag-0" visibility="visible"/><path id="element-1" fill-rule="evenodd" fill="rgb(255, 255, 255)" fill-opacity="1" stroke-opacity="1" transform="translate(65 -76)" d="M -10,100 C -1,101 -1,101 0,110 C 1,101 1,101 10,100 C 1,99 1,99 0,90 C -1,99 -1,99 -10,100 z" class="cursor-selectable tag-1" visibility="visible"/><path id="element-2" fill="rgb(255, 255, 255)" fill-opacity="1" stroke-opacity="1" transform="" d="M 39,30 L 46,30 Q 50,30 50,34 L 50,41 Q 50,45 54,45 L 61,45 Q 65,45 65,49 L 65,56 Q 65,60 69,60 L 76,60 Q 80,60 80,64 L 80,71 Q 80,75 76,75 L 69,75 Q 65,75 65,71 L 65,64 Q 65,60 61,60 L 39,60 Q 35,60 35,64 L 35,71 Q 35,75 31,75 L 24,75 Q 20,75 20,71 L 20,64 Q 20,60 24,60 L 31,60 Q 35,60 35,56 L 35,34 Q 35,30 39,30 z" class="cursor-selectable tag-2" visibility="visible"/></g></svg>